<svg width="256px" height="256px" viewBox="0 0 188.59 188.59" xmlns="http://www.w3.org/2000/svg" fill="#000000" stroke="#000000" stroke-width="0.00188587" transform="rotate(0)"><g id="SVGRepo_bgCarrier" stroke-width="0"></g><g id="SVGRepo_tracerCarrier" stroke-linecap="round" stroke-linejoin="round"></g><g id="SVGRepo_iconCarrier"> <g id="Group_7031" data-name="Group 7031" transform="translate(-836.483 -843.154)"> <g id="Group_7029" data-name="Group 7029"> <g id="Group_6851" data-name="Group 6851"> <g id="Group_6850" data-name="Group 6850"> <g id="Group_6849" data-name="Group 6849"> <path id="Path_2470" data-name="Path 2470" d="M871.069,889.259h-1.8c-3.893,0-4.252-3.5-4.252-5.67,0-.747.031-1.55.115-2.428a29.112,29.112,0,0,1,1.3-6.076c1.189-3.753-2.835-5.669-2.835-5.669a10.535,10.535,0,0,1,.983-.411,14.873,14.873,0,0,0-2.1-.585,22.59,22.59,0,0,0-4.556-.421c-12.6,0-17.008,11.926-17.008,17.008,0,1.381.043,2.763.067,4.125a5.018,5.018,0,0,1,4.185-2.708c2.905,0,5.67,1.551,5.67,8.5a17.445,17.445,0,0,0,2.656,8.687,19.522,19.522,0,0,1,3.013-1.6,36.766,36.766,0,0,0,8.279-4.877l.369.237c-.019-.166-.037-.333-.052-.5h0c.186-.152.368-.318.552-.478.145-.126.292-.246.436-.377l.005-.005q.486-.447.955-.928a20.3,20.3,0,0,0,4.06-5.826Zm-14.552,9.921c-1.774,0-4.252-2.425-4.252-5.669s1.068-4.252,2.834-4.252,5.67,2.5,5.67,5.669A4.067,4.067,0,0,1,856.517,899.18Z" fill="#666"></path> </g> </g> </g> <g id="Group_6854" data-name="Group 6854"> <g id="Group_6853" data-name="Group 6853"> <g id="Group_6852" data-name="Group 6852"> <circle id="Ellipse_168" data-name="Ellipse 168" cx="5.669" cy="5.669" r="5.669" transform="translate(850.848 877.92)" fill="#f95b67"></circle> </g> </g> </g> <g id="Group_6857" data-name="Group 6857"> <g id="Group_6856" data-name="Group 6856"> <g id="Group_6855" data-name="Group 6855"> <circle id="Ellipse_169" data-name="Ellipse 169" cx="2.835" cy="2.835" r="2.835" transform="translate(853.682 880.755)" fill="#ccebda"></circle> </g> </g> </g> <g id="Group_6860" data-name="Group 6860"> <g id="Group_6859" data-name="Group 6859"> <g id="Group_6858" data-name="Group 6858"> <path id="Path_2471" data-name="Path 2471" d="M838.377,901.776c-1.765,4.759-2.749,12.155,6.8,14.412l-1.417-2.835a8.259,8.259,0,0,0,4.252-5.669C846.443,901.95,841.138,901.565,838.377,901.776Z" fill="#f95b67"></path> </g> </g> </g> <g id="Group_6863" data-name="Group 6863"> <g id="Group_6862" data-name="Group 6862"> <g id="Group_6861" data-name="Group 6861"> <path id="Path_2472" data-name="Path 2472" d="M848.013,899.18s-4.2-3.576-8.5,0a25.644,25.644,0,0,0-1.132,2.6c2.761-.211,8.066.174,9.636,5.908,0,0,1.132-.972,2.7-2.142A7.816,7.816,0,0,1,848.013,899.18Z" fill="#666"></path> </g> </g> </g> <g id="Group_6866" data-name="Group 6866"> <g id="Group_6865" data-name="Group 6865"> <g id="Group_6864" data-name="Group 6864"> <path id="Path_2473" data-name="Path 2473" d="M854.048,904.494c-.18-.278-.363-.572-.544-.879a17.445,17.445,0,0,1-2.656-8.687c0-6.953-2.765-8.5-5.67-8.5a5.018,5.018,0,0,0-4.185,2.708c-.044.08-.067.127-.067.127a8.344,8.344,0,0,0-1.563,9.63l.146.291c4.3-3.576,8.5,0,8.5,0a7.816,7.816,0,0,0,2.7,6.362,8.211,8.211,0,0,0,1.473.977A1.419,1.419,0,0,0,854.048,904.494Z" fill="#fda654"></path> </g> </g> </g> <g id="Group_6869" data-name="Group 6869"> <g id="Group_6868" data-name="Group 6868"> <g id="Group_6867" data-name="Group 6867"> <path id="Path_2474" data-name="Path 2474" d="M981.529,871.757a.749.749,0,0,1-.653-.381l-1.7-3.008c-.009-.017-.019-.034-.027-.052l-1.1-2.35a.75.75,0,0,1,1.313-.719,36.388,36.388,0,0,1,2.86,5.471.751.751,0,0,1-.691,1.039Z" fill="#7a7a7a"></path> </g> </g> </g> <g id="Group_6872" data-name="Group 6872"> <g id="Group_6871" data-name="Group 6871"> <g id="Group_6870" data-name="Group 6870"> <path id="Path_2475" data-name="Path 2475" d="M981.528,871.007l-1.7-3.008-1.1-2.35a43.169,43.169,0,0,0-13.285-13.058c-3.209,2.772-8.471,5.486-16.8,5.486-15.227,0-25.512,6.34-25.512,18.426,0,6.255,4.19,13.453,9.074,19.722a120.5,120.5,0,0,0,15.02,15.711l1.418,1.417a40.951,40.951,0,0,0,16.974-4.139c9.829-4.69,18.459-13.317,18.459-25.625h0A32.5,32.5,0,0,0,981.528,871.007Z" fill="#e6e6e6"></path> </g> </g> </g> <g id="Group_6875" data-name="Group 6875"> <g id="Group_6874" data-name="Group 6874"> <g id="Group_6873" data-name="Group 6873"> <path id="Path_2476" data-name="Path 2476" d="M902.554,910.011a37.857,37.857,0,0,1-10.545-1.016,15.588,15.588,0,0,0,15.531,14.279,17.158,17.158,0,0,0,11.339-4.252l-4.694-6.781-3.751-5.417A23.933,23.933,0,0,1,902.554,910.011Z" fill="#e4cec0"></path> </g> </g> </g> <g id="Group_6878" data-name="Group 6878"> <g id="Group_6877" data-name="Group 6877"> <g id="Group_6876" data-name="Group 6876"> <path id="Path_2477" data-name="Path 2477" d="M957.278,932.66a.752.752,0,0,1-.463-.16,17.845,17.845,0,0,1-3.108-3.113.75.75,0,0,1,1.135-.974l2.967,2.967a.751.751,0,0,1-.531,1.28Z" fill="#7a7a7a"></path> </g> </g> </g> <g id="Group_6881" data-name="Group 6881"> <g id="Group_6880" data-name="Group 6880"> <g id="Group_6879" data-name="Group 6879"> <path id="Path_2478" data-name="Path 2478" d="M982.659,937.448l-5.069-5.069c-3.24.832-9.3,2.234-13.356,2.234a11.485,11.485,0,0,1-6.956-2.7l5.538,5.538a11.2,11.2,0,0,0,8.5,4.251v-4.251a11.2,11.2,0,0,0,8.5,4.251h9.921v-.131A13.82,13.82,0,0,1,982.659,937.448Z" fill="#333"></path> </g> </g> </g> <g id="Group_6884" data-name="Group 6884"> <g id="Group_6883" data-name="Group 6883"> <g id="Group_6882" data-name="Group 6882"> <path id="Path_2479" data-name="Path 2479" d="M887.24,907.719a.749.749,0,0,1-.411-.123,10.887,10.887,0,0,1-1.029-.754c-.035-.029-.066-.059-.095-.088a.749.749,0,0,1,.568-1.307c.251.023.5.041.745.052a.75.75,0,0,1,.671.5l.258.721a.751.751,0,0,1-.707,1Z" fill="#7a7a7a"></path> </g> </g> </g> <g id="Group_6887" data-name="Group 6887"> <g id="Group_6886" data-name="Group 6886"> <g id="Group_6885" data-name="Group 6885"> <path id="Path_2480" data-name="Path 2480" d="M888.468,916.188h-2.187a21.214,21.214,0,0,1-17-8.5l-.01,0s3.7,7.193,14.173,15.59l4.252-2.834,7.016,7.016c-.924-4.178-1.347-7.016-1.347-7.016A20.558,20.558,0,0,1,888.468,916.188Z" fill="#333"></path> </g> </g> </g> <g id="Group_6890" data-name="Group 6890"> <g id="Group_6889" data-name="Group 6889"> <g id="Group_6888" data-name="Group 6888"> <path id="Path_2481" data-name="Path 2481" d="M918.879,926.109V941.7l11.339-11.339v-4.252Z" fill="#333"></path> </g> </g> </g> <g id="Group_6893" data-name="Group 6893"> <g id="Group_6892" data-name="Group 6892"> <g id="Group_6891" data-name="Group 6891"> <path id="Path_2482" data-name="Path 2482" d="M886.205,906.194q.393.036.778.054Q886.6,906.23,886.205,906.194Z" fill="none"></path> </g> </g> </g> <g id="Group_6896" data-name="Group 6896"> <g id="Group_6895" data-name="Group 6895"> <g id="Group_6894" data-name="Group 6894"> <path id="Path_2483" data-name="Path 2483" d="M886.774,906.648c-.168-.124-.335-.249-.493-.382C886.439,906.4,886.6,906.526,886.774,906.648Z" fill="none"></path> </g> </g> </g> <g id="Group_6899" data-name="Group 6899"> <g id="Group_6898" data-name="Group 6898"> <g id="Group_6897" data-name="Group 6897"> <path id="Path_2484" data-name="Path 2484" d="M890.849,908.648l-.178-.059Z" fill="none"></path> </g> </g> </g> <g id="Group_6902" data-name="Group 6902"> <g id="Group_6901" data-name="Group 6901"> <g id="Group_6900" data-name="Group 6900"> <path id="Path_2485" data-name="Path 2485" d="M892.009,908.995a15.588,15.588,0,0,0,15.531,14.279,17.158,17.158,0,0,0,11.339-4.252l-4.694-6.781-3.751-5.417a23.933,23.933,0,0,1-7.88,3.187A37.857,37.857,0,0,1,892.009,908.995Z" fill="#e4cec0"></path> </g> </g> </g> <g id="Group_6905" data-name="Group 6905"> <g id="Group_6904" data-name="Group 6904"> <g id="Group_6903" data-name="Group 6903"> <path id="Path_2486" data-name="Path 2486" d="M865.113,896.873c.015.168.033.335.052.5-.019-.166-.037-.333-.052-.5Z" fill="none"></path> </g> </g> </g> <g id="Group_6908" data-name="Group 6908"> <g id="Group_6907" data-name="Group 6907"> <g id="Group_6906" data-name="Group 6906"> <path id="Path_2487" data-name="Path 2487" d="M865.665,896.4c.147-.128.3-.249.441-.382l-.005.005C865.957,896.149,865.81,896.269,865.665,896.4Z" fill="none"></path> </g> </g> </g> <g id="Group_6911" data-name="Group 6911"> <g id="Group_6910" data-name="Group 6910"> <g id="Group_6909" data-name="Group 6909"> <path id="Path_2488" data-name="Path 2488" d="M889.513,908.157l-.016-.007Z" fill="none"></path> </g> </g> </g> <g id="Group_6914" data-name="Group 6914"> <g id="Group_6913" data-name="Group 6913"> <g id="Group_6912" data-name="Group 6912"> <path id="Path_2489" data-name="Path 2489" d="M871.121,890.009h-.052a.751.751,0,0,1-.684-1.057c.172-.383.327-.78.463-1.181a.749.749,0,0,1,1.254-.275.809.809,0,0,1,.2.776c-.142.437-.307.87-.489,1.287A.752.752,0,0,1,871.121,890.009Z" fill="#7a7a7a"></path> </g> </g> </g> <g id="Group_6917" data-name="Group 6917"> <g id="Group_6916" data-name="Group 6916"> <g id="Group_6915" data-name="Group 6915"> <path id="Path_2490" data-name="Path 2490" d="M855.1,889.259c-1.766,0-2.834,1.007-2.834,4.252s2.478,5.669,4.252,5.669a4.067,4.067,0,0,0,4.252-4.252C860.769,891.755,856.867,889.259,855.1,889.259Z" fill="#b3b3b3"></path> </g> </g> </g> <g id="Group_6920" data-name="Group 6920"> <g id="Group_6919" data-name="Group 6919"> <g id="Group_6918" data-name="Group 6918"> <path id="Path_2491" data-name="Path 2491" d="M887.7,907.016c-.248,0-.5-.006-.752-.019a.75.75,0,0,1,.036-1.5h.037c.089.005.178.008.266.011.139,0,.276.006.413.006a.75.75,0,0,1,0,1.5Z" fill="#7a7a7a"></path> </g> </g> </g> <g id="Group_6923" data-name="Group 6923"> <g id="Group_6922" data-name="Group 6922"> <g id="Group_6921" data-name="Group 6921"> <path id="Path_2492" data-name="Path 2492" d="M866.106,896.763a.75.75,0,0,1-.508-1.3h0c.313-.287.618-.583.906-.879l0,0,0,0,.005-.005h0l.006-.007a.75.75,0,0,1,1.076,1.046l0,0c-.316.324-.646.645-.982.953A.743.743,0,0,1,866.106,896.763Z" fill="#7a7a7a"></path> </g> </g> </g> <g id="Group_6926" data-name="Group 6926"> <g id="Group_6925" data-name="Group 6925"> <g id="Group_6924" data-name="Group 6924"> <path id="Path_2493" data-name="Path 2493" d="M865.114,897.623a.75.75,0,0,1-.475-1.331c.121-.1.24-.2.36-.31l.174-.153a.75.75,0,0,1,.985,1.131L866,897.1c-.137.121-.274.241-.412.355l0,0A.744.744,0,0,1,865.114,897.623Z" fill="#7a7a7a"></path> </g> </g> </g> <g id="Group_6929" data-name="Group 6929"> <g id="Group_6928" data-name="Group 6928"> <g id="Group_6927" data-name="Group 6927"> <path id="Path_2494" data-name="Path 2494" d="M882.9,905.626c-6.941-1.674-14.542-6.207-17.739-8.252a21.275,21.275,0,0,0,21.116,18.814h2.187a26.9,26.9,0,0,1-3.5-5.364A33.832,33.832,0,0,1,882.9,905.626Z" fill="#e6e6e6"></path> </g> </g> </g> <g id="Group_6932" data-name="Group 6932"> <g id="Group_6931" data-name="Group 6931"> <g id="Group_6930" data-name="Group 6930"> <path id="Path_2495" data-name="Path 2495" d="M890.671,909.34a.772.772,0,0,1-.24-.039q-.2-.069-.4-.141c-.287-.1-.553-.206-.8-.31a.75.75,0,0,1,.574-1.386c.236.1.482.192.735.283.12.044.246.088.376.132h0a.751.751,0,0,1-.241,1.461Z" fill="#7a7a7a"></path> </g> </g> </g> <g id="Group_6935" data-name="Group 6935"> <g id="Group_6934" data-name="Group 6934"> <g id="Group_6933" data-name="Group 6933"> <path id="Path_2496" data-name="Path 2496" d="M889.5,908.9a.754.754,0,0,1-.288-.057h0a13.788,13.788,0,0,1-2.878-1.589.75.75,0,0,1,.884-1.212c.143.1.289.2.438.3a13.029,13.029,0,0,0,2.132,1.114h0a.75.75,0,0,1-.289,1.442Z" fill="#7a7a7a"></path> </g> </g> </g> <g id="Group_6938" data-name="Group 6938"> <g id="Group_6937" data-name="Group 6937"> <g id="Group_6936" data-name="Group 6936"> <path id="Path_2497" data-name="Path 2497" d="M892.009,909.745a.724.724,0,0,1-.194-.026c-.383-.1-.776-.22-1.2-.358a.75.75,0,0,1,.466-1.426h0c.371.121.743.235,1.121.335a.751.751,0,0,1,.556.724.767.767,0,0,1-.026.2A.751.751,0,0,1,892.009,909.745Z" fill="#7a7a7a"></path> </g> </g> </g> <g id="Group_6941" data-name="Group 6941"> <g id="Group_6940" data-name="Group 6940"> <g id="Group_6939" data-name="Group 6939"> <path id="Path_2498" data-name="Path 2498" d="M877.777,873.72v-9.973a13.224,13.224,0,0,1,2.137-7.069A19.843,19.843,0,0,0,862.49,868.42a14.873,14.873,0,0,1,2.1.585C869.866,867.1,874.583,870.368,877.777,873.72Z" fill="#e6e6e6"></path> </g> </g> </g> <g id="Group_6944" data-name="Group 6944"> <g id="Group_6943" data-name="Group 6943"> <g id="Group_6942" data-name="Group 6942"> <path id="Path_2499" data-name="Path 2499" d="M871.584,888.789a.75.75,0,0,1-.544-.234.812.812,0,0,1-.192-.784,8.726,8.726,0,0,0,.509-2.764.75.75,0,0,1,1.5,0,10.541,10.541,0,0,1-.56,3.266.749.749,0,0,1-.548.5A.771.771,0,0,1,871.584,888.789Z" fill="#7a7a7a"></path> </g> </g> </g> <g id="Group_6947" data-name="Group 6947"> <g id="Group_6946" data-name="Group 6946"> <g id="Group_6945" data-name="Group 6945"> <path id="Path_2500" data-name="Path 2500" d="M885.54,882.653a6.539,6.539,0,0,1,4.993-1.9c4.383,0,11.338,4.013,11.338,15.59a13.658,13.658,0,0,0,4.252-9.921c0-6.335-4.807-14.173-15.59-14.173a17.085,17.085,0,0,0-10.619,3.973,32.341,32.341,0,0,1,1.856,2.68A31.68,31.68,0,0,1,885.54,882.653Z" fill="#e6e6e6"></path> </g> </g> </g> <g id="Group_6950" data-name="Group 6950"> <g id="Group_6949" data-name="Group 6949"> <g id="Group_6948" data-name="Group 6948"> <path id="Path_2501" data-name="Path 2501" d="M879.914,876.224a30.868,30.868,0,0,0-2.137-2.5c-3.194-3.352-7.911-6.618-13.191-4.715a10.535,10.535,0,0,0-.983.411s4.024,1.916,2.835,5.669a29.112,29.112,0,0,0-1.3,6.076c-.084.878-.115,1.681-.115,2.428,0,2.166.359,5.67,4.252,5.67h1.8q.281-.625.489-1.248a9.446,9.446,0,0,0,.549-3c0-3.752-.46-9.536-2.854-12.673l.02-.083a32.143,32.143,0,0,1,8.5,3.75c.464.29.916.582,1.343.877.981.678,1.868,1.364,2.65,2.026A32.341,32.341,0,0,0,879.914,876.224Z" fill="#b3b3b3"></path> </g> </g> </g> <g id="Group_6953" data-name="Group 6953"> <g id="Group_6952" data-name="Group 6952"> <g id="Group_6951" data-name="Group 6951"> <path id="Path_2502" data-name="Path 2502" d="M897.619,862.329a24.081,24.081,0,0,0-19.842,10.431v.96a30.868,30.868,0,0,1,2.137,2.5,17.085,17.085,0,0,1,10.619-3.973c10.783,0,15.59,7.838,15.59,14.173a13.658,13.658,0,0,1-4.252,9.921c0-11.577-6.955-15.59-11.338-15.59a6.539,6.539,0,0,0-4.993,1.9c.489.582.741.936.741.936a73.963,73.963,0,0,1,4.525,11.868,29.7,29.7,0,0,1,.759,3.723c.049.374.088.741.113,1.1q.021.315.03.619c.085,3.1-.911,5.368-4.01,5.368q-.354,0-.715-.018h0q-.385-.018-.778-.054c.027.024.048.049.076.072.158.133.325.258.493.382.152.11.308.217.466.321a13.709,13.709,0,0,0,2.257,1.181l.016.007c.378.157.766.3,1.158.432l.178.059c.382.125.769.242,1.16.347a37.857,37.857,0,0,0,10.545,1.016,23.933,23.933,0,0,0,7.88-3.187,24.217,24.217,0,0,0,8.435-9.06,24.081,24.081,0,0,0-21.25-35.435Z" fill="#666"></path> </g> </g> </g> <g id="Group_6956" data-name="Group 6956"> <g id="Group_6955" data-name="Group 6955"> <g id="Group_6954" data-name="Group 6954"> <path id="Path_2503" data-name="Path 2503" d="M891.708,900.9q-.009-.3-.03-.619c-.025-.358-.064-.725-.113-1.1a29.7,29.7,0,0,0-.759-3.723,73.963,73.963,0,0,0-4.525-11.868s-.252-.354-.741-.936a31.68,31.68,0,0,0-3.77-3.749c-.782-.662-1.669-1.348-2.65-2.026-.427-.295-.879-.587-1.343-.877a32.143,32.143,0,0,0-8.5-3.75l-.02.083c2.394,3.137,2.854,8.921,2.854,12.673a9.818,9.818,0,0,1-.522,3.032c-.134.408-.287.815-.464,1.22a20.3,20.3,0,0,1-4.06,5.826h0q-.468.48-.955.928h0c-.145.133-.294.254-.441.382-.184.16-.366.326-.552.478.015.168.033.335.052.5,3.2,2.045,10.8,6.578,17.739,8.252a23.27,23.27,0,0,0,3.3.568q.393.036.778.054.362.018.715.018C890.8,906.266,891.793,904,891.708,900.9Z" fill="#f95b67"></path> </g> </g> </g> <g id="Group_6959" data-name="Group 6959"> <g id="Group_6958" data-name="Group 6958"> <g id="Group_6957" data-name="Group 6957"> <path id="Path_2504" data-name="Path 2504" d="M935.887,1008.314h-9.921v10.63a2.115,2.115,0,0,1-.878,1.713l.169-.638s-.28-1.784-1.417-1.784-1.418,1.784-1.418,1.784l.169.638a2.117,2.117,0,0,1-.877-1.713v-10.63H920.3c-3.62,1.225-7.087,8.5-7.087,8.5,0,3.312-2.835,2.834-2.835,2.834-2.874,1.564-1.417,7.087-1.417,7.087l-1.418-2.835c-2.723-4.886,2.326-11.77,5.742-15.59h-4.324s-.459,2.834-2.835,2.834-2.835-2.834-2.835-2.834c-3.043,0-5.669,4.252-5.669,4.252a9.607,9.607,0,0,1,1.488-4.252H850.848v22.677h138.9v-22.677Z" fill="#be8a66"></path> </g> </g> </g> <g id="Group_6962" data-name="Group 6962"> <g id="Group_6961" data-name="Group 6961"> <g id="Group_6960" data-name="Group 6960"> <path id="Path_2505" data-name="Path 2505" d="M923.84,1018.235c-1.138,0-1.418,1.784-1.418,1.784l.169.638,1.249,4.714,1.248-4.714.169-.638S924.977,1018.235,923.84,1018.235Z" fill="#333"></path> </g> </g> </g> <g id="Group_6965" data-name="Group 6965"> <g id="Group_6964" data-name="Group 6964"> <g id="Group_6963" data-name="Group 6963"> <path id="Path_2506" data-name="Path 2506" d="M907.615,1016.837c-.974,2.457-1.255,4.95-.075,7.067l1.418,2.835s-1.457-5.523,1.417-7.087A3.573,3.573,0,0,0,907.615,1016.837Z" fill="#333"></path> </g> </g> </g> <g id="Group_6968" data-name="Group 6968"> <g id="Group_6967" data-name="Group 6967"> <g id="Group_6966" data-name="Group 6966"> <path id="Path_2507" data-name="Path 2507" d="M899.107,1008.314a9.607,9.607,0,0,0-1.488,4.252s2.626-4.252,5.669-4.252V1005.6A6.189,6.189,0,0,0,899.107,1008.314Z" fill="#333"></path> </g> </g> </g> <g id="Group_6971" data-name="Group 6971"> <g id="Group_6970" data-name="Group 6970"> <g id="Group_6969" data-name="Group 6969"> <path id="Path_2508" data-name="Path 2508" d="M930.218,961.542v9.921s-5,20.525-9.921,26.929c0,0-8.968,7.087-15.591,7.087a8.176,8.176,0,0,0-1.418.121v2.714s.459,2.834,2.835,2.834,2.835-2.834,2.835-2.834l7.086-2.835s-1.213,1.1-2.762,2.835a31.045,31.045,0,0,0-5.667,8.523,3.573,3.573,0,0,1,2.76,2.815s2.835.478,2.835-2.834c0,0,3.467-7.279,7.087-8.5h1.417v10.63a2.117,2.117,0,0,0,.877,1.713l-.169-.638s.28-1.784,1.418-1.784,1.417,1.784,1.417,1.784l-.169.638a2.115,2.115,0,0,0,.878-1.713v-10.63h9.921s-7.2-5.37-5.669-12.756,5.669-24.095,5.669-24.095l7.087-9.921C937.281,965.745,930.218,961.542,930.218,961.542Z" fill="#b3b3b3"></path> </g> </g> </g> <g id="Group_6974" data-name="Group 6974"> <g id="Group_6973" data-name="Group 6973"> <g id="Group_6972" data-name="Group 6972"> <path id="Path_2509" data-name="Path 2509" d="M969.9,924.692l-2.835-2.835h-9.921l-8.5-8.5-1.418-1.417a120.5,120.5,0,0,1-15.02-15.711c-4.884-6.269-9.074-13.467-9.074-19.722,0-12.086,10.285-18.426,25.512-18.426,8.328,0,13.59-2.714,16.8-5.486A57.563,57.563,0,0,0,934.47,843.9H910.375c-13.911,0-25.78,5.307-30.461,12.774a13.224,13.224,0,0,0-2.137,7.069v9.013a24.09,24.09,0,1,1,32.657,34.064l3.751,5.417,4.694,6.781a17.158,17.158,0,0,1-11.339,4.252,15.588,15.588,0,0,1-15.531-14.279c-.391-.1-.777-.222-1.16-.347l-.178-.059c-.393-.132-.779-.275-1.158-.432l-.016-.007a13,13,0,0,1-2.723-1.5c-.169-.122-.335-.249-.493-.382-.028-.023-.049-.048-.076-.072a23.27,23.27,0,0,1-3.3-.568,33.832,33.832,0,0,0,2.068,5.2,26.9,26.9,0,0,0,3.5,5.364,20.558,20.558,0,0,0,4.9,4.252s.423,2.838,1.347,7.016c1.907,8.622,5.95,22.953,12.826,29.834,0,0,7.886-.472,11.339-7.087V926.109h11.339v35.433s7.063,4.2,12.756,0l11.338-32.6,2.966,2.966a11.485,11.485,0,0,0,6.956,2.7c4.055,0,10.116-1.4,13.356-2.234Z" fill="#e6e6e6"></path> </g> </g> </g> <g id="Group_6977" data-name="Group 6977"> <g id="Group_6976" data-name="Group 6976"> <g id="Group_6975" data-name="Group 6975"> <path id="Path_2510" data-name="Path 2510" d="M892.273,981.713c.067-.1.134-.209.2-.317-.062,0-.122-.011-.184-.011C892.287,981.5,892.279,981.6,892.273,981.713Z" fill="#b3b3b3"></path> </g> </g> </g> <g id="Group_6980" data-name="Group 6980"> <g id="Group_6979" data-name="Group 6979"> <g id="Group_6978" data-name="Group 6978"> <path id="Path_2511" data-name="Path 2511" d="M880.95,1005.479s-.467-5.452,1.417-7.087h-3.082A16.385,16.385,0,0,0,880.95,1005.479Z" fill="#333"></path> </g> </g> </g> <g id="Group_6983" data-name="Group 6983"> <g id="Group_6982" data-name="Group 6982"> <g id="Group_6981" data-name="Group 6981"> <path id="Path_2512" data-name="Path 2512" d="M882.367,991.306a4.466,4.466,0,0,1-.669,2.527,3.777,3.777,0,0,1-2.109,1.5l-.056.225a13.1,13.1,0,0,0-.248,2.834h3.082s3.369-.037,2.835-5.669a15.36,15.36,0,0,1,1.1-6.479C884.634,986.992,882.367,988.522,882.367,991.306Z" fill="#b3b3b3"></path> </g> </g> </g> <g id="Group_6986" data-name="Group 6986"> <g id="Group_6985" data-name="Group 6985"> <g id="Group_6984" data-name="Group 6984"> <path id="Path_2513" data-name="Path 2513" d="M876.152,991.837a23.339,23.339,0,0,0-2.289,9.39s1.866-5.265,4.252-5.669A5.679,5.679,0,0,0,876.152,991.837Z" fill="#333"></path> </g> </g> </g> <g id="Group_6989" data-name="Group 6989"> <g id="Group_6988" data-name="Group 6988"> <g id="Group_6987" data-name="Group 6987"> <path id="Path_2514" data-name="Path 2514" d="M918.879,955.873V950.2c-3.453,6.615-11.339,7.087-11.339,7.087v2.835l-19.1,13.369-.1.106c-.117.125-.334.358-.638.7-1.657,1.856-8.959,11.782-11.546,17.539a5.679,5.679,0,0,1,1.963,3.721,5.1,5.1,0,0,0,1.474-.225,3.777,3.777,0,0,0,2.109-1.5,4.466,4.466,0,0,0,.669-2.527c0-2.784,2.267-4.314,3.934-5.062a10.2,10.2,0,0,1,1.736-.608,13.06,13.06,0,0,0,4.236-3.923c.006-.109.014-.216.015-.328.062,0,.122.009.184.011,3.886.129,6.9,4.24,6.9,4.24a10.969,10.969,0,0,0-5.669-8.5l23.756-17.008A4.489,4.489,0,0,0,918.879,955.873Z" fill="#b3b3b3"></path> </g> </g> </g> <g id="Group_6992" data-name="Group 6992"> <g id="Group_6991" data-name="Group 6991"> <g id="Group_6990" data-name="Group 6990"> <path id="Path_2515" data-name="Path 2515" d="M1006.753,928.944v-9.922a18.574,18.574,0,0,0-2.835-8.5l-22.39-39.511a32.5,32.5,0,0,1,2.548,12.582h0a24.856,24.856,0,0,1-.654,5.7c6.474,9.368,15.007,21.7,17.662,25.483A38.023,38.023,0,0,1,1006.753,928.944Z" fill="#333"></path> </g> </g> </g> <g id="Group_6995" data-name="Group 6995"> <g id="Group_6994" data-name="Group 6994"> <g id="Group_6993" data-name="Group 6993"> <path id="Path_2516" data-name="Path 2516" d="M948.643,913.353l8.5,8.5h9.921l-9.153-9.807A36.654,36.654,0,0,1,948.643,913.353Z" fill="#333"></path> </g> </g> </g> <g id="Group_6998" data-name="Group 6998"> <g id="Group_6997" data-name="Group 6997"> <g id="Group_6996" data-name="Group 6996"> <path id="Path_2517" data-name="Path 2517" d="M965.617,909.214a44.581,44.581,0,0,1-7.7,2.836l9.153,9.807,2.835,2.835,7.687,7.687,5.069,5.069a13.82,13.82,0,0,0,7.086,4.12,8.465,8.465,0,0,0,1.417.131h5.67l-25.649-35.684A41.493,41.493,0,0,1,965.617,909.214Z" fill="#333"></path> </g> </g> </g> <g id="Group_7001" data-name="Group 7001"> <g id="Group_7000" data-name="Group 7000"> <g id="Group_6999" data-name="Group 6999"> <path id="Path_2518" data-name="Path 2518" d="M979.922,897.333a32.178,32.178,0,0,1-8.739,8.682L996.832,941.7h0s3.512,7.087,14.173,7.087h5.669L1002.5,928.944Z" fill="#333"></path> </g> </g> </g> <g id="Group_7004" data-name="Group 7004"> <g id="Group_7003" data-name="Group 7003"> <g id="Group_7002" data-name="Group 7002"> <path id="Path_2519" data-name="Path 2519" d="M1006.753,928.944a38.023,38.023,0,0,0-5.669-14.174c-2.655-3.779-11.188-16.115-17.662-25.483a24.8,24.8,0,0,1-3.5,8.046l22.579,31.611Z" fill="#333"></path> </g> </g> </g> <g id="Group_7007" data-name="Group 7007"> <g id="Group_7006" data-name="Group 7006"> <g id="Group_7005" data-name="Group 7005"> <path id="Path_2520" data-name="Path 2520" d="M886.205,906.194q.393.036.778.054Q886.6,906.23,886.205,906.194Z" fill="none"></path> </g> </g> </g> <g id="Group_7010" data-name="Group 7010"> <g id="Group_7009" data-name="Group 7009"> <g id="Group_7008" data-name="Group 7008"> <path id="Path_2521" data-name="Path 2521" d="M886.774,906.648c-.168-.124-.335-.249-.493-.382C886.439,906.4,886.6,906.526,886.774,906.648Z" fill="none"></path> </g> </g> </g> <g id="Group_7013" data-name="Group 7013"> <g id="Group_7012" data-name="Group 7012"> <g id="Group_7011" data-name="Group 7011"> <path id="Path_2522" data-name="Path 2522" d="M890.849,908.648l-.178-.059Z" fill="none"></path> </g> </g> </g> <g id="Group_7016" data-name="Group 7016"> <g id="Group_7015" data-name="Group 7015"> <g id="Group_7014" data-name="Group 7014"> <path id="Path_2523" data-name="Path 2523" d="M892.009,908.995a15.588,15.588,0,0,0,15.531,14.279,17.158,17.158,0,0,0,11.339-4.252l-4.694-6.781-3.751-5.417a23.933,23.933,0,0,1-7.88,3.187A37.857,37.857,0,0,1,892.009,908.995Z" fill="none"></path> </g> </g> </g> <g id="Group_7019" data-name="Group 7019"> <g id="Group_7018" data-name="Group 7018"> <g id="Group_7017" data-name="Group 7017"> <path id="Path_2524" data-name="Path 2524" d="M865.113,896.873c.015.168.033.335.052.5-.019-.166-.037-.333-.052-.5Z" fill="none"></path> </g> </g> </g> <g id="Group_7022" data-name="Group 7022"> <g id="Group_7021" data-name="Group 7021"> <g id="Group_7020" data-name="Group 7020"> <path id="Path_2525" data-name="Path 2525" d="M865.665,896.4c.147-.128.3-.249.441-.382l-.005.005C865.957,896.149,865.81,896.269,865.665,896.4Z" fill="none"></path> </g> </g> </g> <g id="Group_7025" data-name="Group 7025"> <g id="Group_7024" data-name="Group 7024"> <g id="Group_7023" data-name="Group 7023"> <path id="Path_2526" data-name="Path 2526" d="M889.513,908.157l-.016-.007Z" fill="none"></path> </g> </g> </g> <g id="Group_7028" data-name="Group 7028"> <g id="Group_7027" data-name="Group 7027"> <g id="Group_7026" data-name="Group 7026"> <path id="Path_2527" data-name="Path 2527" d="M916.044,1005.479l-7.086,2.835h4.324C914.831,1006.581,916.044,1005.479,916.044,1005.479Z" fill="none"></path> </g> </g> </g> </g> <g id="Group_7030" data-name="Group 7030"> <path id="Path_2528" data-name="Path 2528" d="M856.517,882.172a1.418,1.418,0,1,0,1.417,1.417A1.417,1.417,0,0,0,856.517,882.172Z" fill="#1a1a1a"></path> <path id="Path_2529" data-name="Path 2529" d="M989.745,1030.241h-138.9a.75.75,0,0,0,0,1.5h138.9a.75.75,0,0,0,0-1.5Z" fill="#1a1a1a"></path> <path id="Path_2530" data-name="Path 2530" d="M1017.284,948.35l-13.325-18.656h2.794a.54.54,0,0,0,.057,0,.744.744,0,0,0,.189-.051c.025-.009.051-.01.075-.021a.732.732,0,0,0,.237-.179l.011-.008c.015-.018.019-.041.032-.06a.745.745,0,0,0,.1-.192.706.706,0,0,0,.021-.113.721.721,0,0,0,.024-.123v-9.95a19.107,19.107,0,0,0-2.931-8.845L982.2,870.668a36.405,36.405,0,0,0-2.838-5.421,44.222,44.222,0,0,0-13.514-13.288,57.967,57.967,0,0,0-31.376-8.8H910.375c-13.7,0-25.746,5.016-30.87,12.8a20.711,20.711,0,0,0-17.439,11.629,24.207,24.207,0,0,0-4.132-.336c-12.549,0-17.758,11.566-17.758,17.758,0,.961.021,1.923.041,2.879.008.34.014.678.021,1.017a9.074,9.074,0,0,0-1.561,10.284c-.372.766-.713,1.546-1,2.328-1.07,2.884-1.964,7.031-.153,10.411,1.312,2.449,3.83,4.128,7.485,4.992a.776.776,0,0,0,.172.02.751.751,0,0,0,.671-1.086l-1.1-2.2a9.12,9.12,0,0,0,3.918-5.547c.316-.265,1.069-.886,2.049-1.631a9.238,9.238,0,0,0,1.12.705,2.218,2.218,0,0,0,1.027.256,2.173,2.173,0,0,0,1.811-3.355c-.045-.07-.092-.15-.137-.222a16.706,16.706,0,0,1,2.255-1.152,37.5,37.5,0,0,0,7.745-4.442,21.967,21.967,0,0,0,4.065,9.755v0c.154.3,3.9,7.432,14.37,15.832a.748.748,0,0,0,.886.039l3.74-2.493,6.428,6.427c1.824,8.184,5.862,22.623,12.76,29.748v2.154l-18.782,13.145a.657.657,0,0,0-.11.094l-.107.112c-.12.128-.342.365-.653.714-1.6,1.788-8.991,11.768-11.67,17.73a23.93,23.93,0,0,0-2.355,9.7.75.75,0,0,0,.623.739.787.787,0,0,0,.128.011.751.751,0,0,0,.706-.5c.661-1.861,2.227-4.888,3.636-5.171.1,0,.252-.009.448-.028a16.087,16.087,0,0,0-.12,2.12,17.263,17.263,0,0,0,1.742,7.411.752.752,0,0,0,.674.419.773.773,0,0,0,.2-.027.752.752,0,0,0,.547-.786c-.159-1.88-.009-5.153,1.023-6.311a3.494,3.494,0,0,0,2.022-1.137c1.027-1.14,1.433-2.929,1.206-5.316a14.137,14.137,0,0,1,.961-5.853,9.23,9.23,0,0,1,1.292-.431.751.751,0,0,0,.189-.07,13.743,13.743,0,0,0,4.474-4.121c3.275.384,5.879,3.867,5.907,3.9a.75.75,0,0,0,1.352-.493,11.756,11.756,0,0,0-5.038-8.521l22.834-16.348a5.282,5.282,0,0,0,1.71-4.939V942.01l9.839-9.838v39.2c-.359,1.449-5.117,20.407-9.709,26.488-.856.661-9.068,6.869-15.053,6.869a9.019,9.019,0,0,0-1.548.132,6.873,6.873,0,0,0-4.427,2.7H850.847a.75.75,0,0,0,0,1.5H897.82c-.044.093-.079.184-.119.276s-.075.171-.11.256c-.073.181-.137.358-.2.532-.019.055-.042.112-.059.166-.073.225-.134.439-.186.642-.014.055-.024.1-.036.154-.036.147-.068.288-.094.417-.013.065-.023.121-.034.181-.019.105-.036.2-.05.289-.008.052-.015.1-.021.142-.011.081-.019.145-.025.2,0,.031-.007.056-.009.08l-.011.115a.751.751,0,0,0,.52.764.76.76,0,0,0,.229.036l.006,0a.757.757,0,0,0,.319-.082.66.66,0,0,0,.068-.039.737.737,0,0,0,.245-.233c.071-.114.162-.252.265-.4l.033-.048c.1-.143.218-.3.344-.461l.063-.081c.128-.162.269-.329.417-.5l.083-.093c.153-.172.316-.345.487-.515l.082-.079c.179-.175.366-.347.56-.509.017-.013.035-.026.051-.04a7.23,7.23,0,0,1,.618-.457l.028-.021a5.33,5.33,0,0,1,.645-.356c.029-.014.057-.029.086-.041a3.542,3.542,0,0,1,.64-.214l.064-.015c.024.071.057.147.085.22.023.058.042.114.067.173a5.189,5.189,0,0,0,.236.481c.01.018.018.037.028.056a4.507,4.507,0,0,0,.35.515c.037.048.08.091.12.137a3.658,3.658,0,0,0,.317.331c.057.053.119.1.181.15a3.091,3.091,0,0,0,.357.246c.071.043.142.084.218.122a3.028,3.028,0,0,0,.448.172c.074.024.144.052.222.071a3.368,3.368,0,0,0,1.5.015c.078-.017.145-.049.22-.071a3.146,3.146,0,0,0,.414-.141c.081-.037.152-.086.228-.129a3.109,3.109,0,0,0,.316-.191c.075-.054.139-.116.208-.175.087-.074.174-.147.252-.228.065-.066.121-.137.179-.208s.14-.165.2-.252.1-.151.147-.228.109-.175.157-.264.079-.156.116-.235.083-.176.118-.264.058-.151.084-.227c.017-.048.04-.1.054-.144h2.1c-.073.087-.133.169-.2.256q-.3.369-.608.761c-.732.933-1.362,1.819-1.9,2.66l-.138.213c-.192.306-.37.605-.538.9-.081.14-.16.279-.238.42q-.189.345-.357.678c-.115.227-.225.453-.331.681-.056.123-.109.244-.161.365-.083.188-.175.376-.25.565a9.406,9.406,0,0,0-.49,6.675c.008.026.016.055.025.08.035.1.074.188.113.281a6.331,6.331,0,0,0,.3.642l1.418,2.835a.749.749,0,0,0,.671.415.76.76,0,0,0,.264-.048.751.751,0,0,0,.461-.893l-.015-.063-.01-.047c-.008-.033-.016-.066-.026-.115-.006-.029-.015-.071-.022-.106s-.018-.087-.028-.141-.019-.1-.028-.152-.02-.11-.031-.173-.018-.119-.027-.179-.022-.135-.032-.209-.017-.138-.026-.207-.019-.151-.028-.231-.014-.153-.021-.231-.015-.163-.021-.248-.008-.161-.012-.242-.008-.174-.01-.263,0-.167,0-.251,0-.179,0-.27.009-.168.015-.252.011-.181.02-.271.021-.167.033-.25.025-.177.041-.264.035-.161.054-.241.041-.17.066-.252.051-.152.079-.227.059-.157.093-.232.069-.14.107-.207.079-.141.124-.208.09-.122.138-.181a2.2,2.2,0,0,1,.158-.175,2.062,2.062,0,0,1,.173-.149c.041-.032.084-.061.127-.09h.1c.089,0,.187,0,.295-.009l.049,0c.076-.006.154-.015.237-.026l.086-.015a3.433,3.433,0,0,0,.346-.075c.076-.02.152-.041.229-.068.052-.018.1-.041.155-.062.084-.034.168-.074.252-.118.045-.023.089-.046.133-.072a2.827,2.827,0,0,0,.376-.262,3.508,3.508,0,0,0,1.122-2.718c.987-2.021,3.842-6.932,6.47-7.93h.537v9.88a2.863,2.863,0,0,0,.956,2.106l1.2,4.513a.75.75,0,0,0,1.45,0l1.2-4.513a2.867,2.867,0,0,0,.956-2.106v-9.88h63.029a.75.75,0,0,0,0-1.5h-53.6c-1.047-.853-6.487-5.633-5.2-11.854,1.437-6.931,5.226-22.3,5.628-23.928l7-9.8c.007-.01.009-.023.016-.034a.739.739,0,0,0,.082-.155l10.906-31.356a18.842,18.842,0,0,0,2.183,2.03l5.476,5.476a11.861,11.861,0,0,0,9.073,4.51.75.75,0,0,0,.75-.75v-2.35a11.538,11.538,0,0,0,7.754,3.1h9.921a.731.731,0,0,0,.326-.082,8.726,8.726,0,0,0,1.091.082H996.4c.951,1.573,4.969,7.087,14.608,7.087h5.669a.75.75,0,0,0,.61-1.186Zm-36.455-51.038c.04-.064.074-.13.113-.194.09-.144.172-.292.258-.437.256-.429.5-.861.729-1.3.066-.126.128-.253.192-.379q.354-.707.662-1.426c.046-.107.092-.215.136-.323q.32-.774.584-1.565c.027-.08.056-.159.082-.24.044-.135.1-.268.139-.4,2.2,3.183,4.9,7.087,7.518,10.869l.257.372q.354.51.7,1.016t.692,1l.518.747.869,1.254.1.147,1,1.444.182.263.911,1.313.106.153c.641.924,1.242,1.789,1.781,2.564l.312.447.5.716.356.51.359.514.581.829c.247.352.482.71.709,1.07.071.112.137.226.206.338.155.254.307.508.452.764.072.126.142.252.212.378.141.257.277.515.41.772.057.111.115.222.171.333q.266.531.508,1.06l.012.026c.167.365.322.727.472,1.086.044.106.085.211.128.316q.155.378.3.749c.045.118.089.236.133.353.089.239.173.475.255.707.035.1.072.2.106.3.1.3.2.6.29.881l.022.068c.1.31.186.607.27.9.026.089.049.173.073.259.056.2.109.387.158.57q.037.14.072.273c.045.174.088.342.127.5.018.071.036.144.052.211.049.2.094.395.133.57l.01.042c.038.173.07.323.1.466h-2.96Zm22.461,13.616a18.015,18.015,0,0,1,2.713,8.094v4.038c-.015-.044-.033-.091-.048-.136-.049-.142-.1-.287-.153-.432-.076-.214-.153-.427-.234-.646-.058-.155-.119-.31-.18-.467-.084-.218-.171-.437-.262-.659-.066-.162-.134-.323-.2-.486-.1-.225-.195-.45-.3-.678-.074-.164-.148-.327-.225-.493-.108-.23-.221-.461-.335-.693-.082-.165-.162-.329-.247-.494-.123-.24-.254-.48-.385-.72-.085-.157-.168-.313-.257-.469-.149-.263-.308-.524-.467-.786-.08-.132-.156-.266-.24-.4-.247-.391-.5-.78-.772-1.164-.351-.5-.806-1.15-1.343-1.921l-.062-.088c-3.174-4.555-9.136-13.173-13.749-19.846l-2.317-3.352c.108-.491.2-.986.278-1.484l.006-.044c.09-.575.155-1.155.207-1.738q.02-.225.036-.45c.042-.607.071-1.216.071-1.827q0-.812-.04-1.62c-.009-.18-.027-.359-.039-.538-.023-.359-.045-.718-.08-1.076-.021-.211-.052-.422-.077-.633-.039-.324-.074-.649-.122-.972-.033-.22-.075-.438-.113-.658-.046-.275-.087-.552-.141-.827ZM978.068,866.01l1.076,2.306a.506.506,0,0,0,.027.052l1.679,2.964c.091.218.171.438.256.656.107.273.219.545.319.82.087.243.163.488.245.733s.178.512.257.77.146.52.219.779.144.492.207.74c.069.27.125.542.186.814.054.239.115.477.163.717.059.288.1.579.154.869.039.224.085.448.119.674.047.313.08.628.118.943.024.2.056.406.076.61.033.327.052.655.074.983.013.194.034.386.043.58.027.522.039,1.045.039,1.569a24.234,24.234,0,0,1-.633,5.526,23.761,23.761,0,0,1-2.266,5.921l-.019.036c-.32.586-.67,1.162-1.04,1.729-.061.092-.12.185-.181.275-.148.22-.3.436-.456.653a32.778,32.778,0,0,1-8.328,7.891c-.688.461-1.392.908-2.119,1.331-.125.073-.246.141-.369.212-.853.484-1.725.948-2.62,1.375q-.965.459-1.953.871c-.158.066-.318.124-.476.188-.506.2-1.013.4-1.524.589-.2.07-.392.133-.589.2-.471.163-.944.323-1.418.469-.235.072-.471.137-.706.2-.415.12-.831.237-1.246.344-.448.115-.9.216-1.343.315-.285.064-.572.133-.856.19-.585.116-1.165.213-1.741.3-.145.022-.292.052-.437.072-.735.1-1.46.182-2.17.235-.129.01-.254.009-.383.017-.512.032-1.016.052-1.509.058l-1.187-1.187-.045-.041a120.654,120.654,0,0,1-14.914-15.6c-5.177-6.644-8.121-12.435-8.776-17.255a15,15,0,0,1-.14-2.006c0-11.068,9.256-17.676,24.761-17.676q1.314,0,2.567-.087c.279-.02.543-.06.817-.085.549-.052,1.1-.1,1.63-.176.316-.046.617-.114.927-.168.469-.083.943-.16,1.4-.264.323-.074.629-.169.944-.253.422-.113.849-.219,1.257-.35.316-.1.617-.225.925-.337.386-.142.777-.278,1.15-.438.3-.129.594-.279.889-.42.357-.17.716-.337,1.06-.524.289-.157.563-.333.843-.5.329-.2.66-.395.977-.611.271-.185.529-.388.792-.585.226-.17.463-.325.682-.5A42.55,42.55,0,0,1,978.068,866.01Zm-27.505,48.027c.212-.014.428-.037.642-.055.439-.036.88-.077,1.328-.131.251-.031.5-.067.758-.1q.656-.093,1.318-.209c.235-.042.469-.084.705-.13.506-.1,1.013-.209,1.523-.328.172-.041.343-.077.516-.119.106-.027.211-.047.318-.074l7.671,8.219h-7.885L950.4,914.05C950.454,914.047,950.51,914.04,950.563,914.037Zm-40.188-69.383H934.47a56.683,56.683,0,0,1,29.664,8.005c-.135.1-.267.213-.406.315q-.36.264-.733.514c-.3.2-.606.389-.918.572-.256.152-.513.3-.778.442-.325.172-.66.333-1,.49-.271.126-.541.253-.82.369-.353.147-.718.278-1.084.409-.282.1-.562.2-.852.295-.385.121-.784.224-1.183.327-.289.075-.574.157-.871.223-.427.1-.871.169-1.313.245-.285.049-.564.108-.856.149-.5.07-1.014.116-1.529.162-.253.023-.5.058-.756.075q-1.17.08-2.4.081c-16.444,0-26.261,7.169-26.261,19.176,0,5.53,3.106,12.32,9.233,20.183,2.188,2.808,4.522,5.432,6.689,7.713,4.386,4.615,8.077,7.8,8.413,8.088l1.4,1.4,8.5,8.5a.751.751,0,0,0,.531.22h9.61l9.366,9.366-.019.005c-.369.09-.764.184-1.169.278l-.223.052c-.4.092-.814.185-1.238.277l-.262.056q-.651.14-1.327.275l-.21.04q-.693.137-1.4.26l-.062.012c-.475.083-.949.158-1.42.229l-.229.034q-.683.1-1.346.175l-.245.027c-.443.048-.877.088-1.3.116l-.183.01c-.437.027-.863.044-1.265.044q-.4,0-.808-.04c-.1-.01-.2-.03-.293-.043-.172-.023-.344-.043-.516-.076-.112-.022-.224-.056-.336-.082-.159-.038-.317-.071-.476-.117-.118-.035-.237-.082-.356-.122-.152-.051-.3-.1-.455-.156-.129-.05-.258-.113-.388-.17s-.281-.117-.422-.185-.269-.144-.4-.216-.271-.14-.407-.219-.27-.171-.4-.257-.268-.164-.4-.256-.275-.2-.413-.3-.254-.181-.381-.28l-2.929-2.929a.734.734,0,0,0-.293-.172.626.626,0,0,0-.083-.019.744.744,0,0,0-.266-.008c-.019,0-.037-.006-.056,0s-.016.011-.026.013a.737.737,0,0,0-.295.149l-.006.007c-.01.009-.015.022-.024.031a.729.729,0,0,0-.166.249c-.006.013-.019.021-.024.035L942.35,961.053c-.226.158-.455.306-.685.438-.05.028-.1.064-.148.091a8.361,8.361,0,0,1-.951.441c-.091.036-.184.061-.275.094-.228.08-.456.156-.684.216-.12.032-.24.056-.36.082-.2.045-.4.084-.6.115-.126.019-.252.035-.377.049-.2.021-.39.036-.583.046-.122.007-.245.014-.366.016-.2,0-.4,0-.6-.009-.106-.005-.213-.005-.318-.012-.255-.017-.505-.043-.751-.075-.043-.005-.087-.008-.13-.014-.284-.039-.56-.089-.828-.144-.1-.021-.2-.046-.3-.069-.166-.038-.332-.076-.491-.118-.107-.029-.209-.059-.312-.088-.144-.042-.285-.084-.421-.127-.1-.031-.194-.063-.287-.095-.132-.045-.258-.09-.38-.135l-.244-.091c-.128-.05-.246-.1-.361-.147l-.175-.072c-.16-.07-.31-.137-.439-.2l-.037-.018c-.1-.05-.2-.1-.277-.136V926.109a.75.75,0,0,0-.75-.75H918.879a.75.75,0,0,0-.75.75V950c-.17.313-.347.617-.538.9-.01.015-.018.032-.028.047a11.052,11.052,0,0,1-.691.911c-.075.09-.155.171-.233.257-.168.19-.339.376-.515.55-.1.095-.2.185-.3.276-.164.15-.329.3-.5.435-.107.088-.215.172-.324.255q-.25.192-.506.368c-.109.075-.217.15-.327.22-.177.115-.355.222-.534.326-.1.058-.2.12-.3.175-.2.111-.4.211-.6.309-.077.037-.155.079-.232.115-.276.129-.549.248-.817.354l-.09.034c-.237.092-.47.178-.7.254-.085.029-.166.053-.249.08-.167.054-.333.106-.492.151-.088.026-.174.049-.259.072-.146.039-.289.076-.425.109-.08.02-.158.038-.234.055-.132.03-.258.057-.377.081-.065.013-.132.027-.193.038-.123.023-.238.043-.344.061l-.125.021c-.13.02-.246.036-.343.048l-.016,0-.02,0c-6.675-6.931-10.613-21.239-12.377-29.215-.907-4.1-1.333-6.936-1.337-6.964a.753.753,0,0,0-.349-.529,19.8,19.8,0,0,1-4.721-4.1,26.075,26.075,0,0,1-3.4-5.214c-.362-.725-.692-1.477-1-2.241-.093-.229-.177-.462-.266-.694-.114-.3-.214-.608-.32-.912.063.012.12.016.182.027.395.072.77.123,1.145.172.166.022.347.06.509.077.076.062.155.118.233.177.062.048.12.1.186.143l.021.016.008.005c.16.116.324.228.49.338s.349.2.521.3c.111.066.205.14.32.2.047.026.1.047.151.073.431.231.885.453,1.373.658l.015.007h0l.01.005,0,0,.012.005c.222.092.463.183.714.275l.078.03c.132.048.267.1.4.14h0l.088.028.095.032.024.007c.236.077.46.147.674.21.021.177.06.348.086.524.038.249.074.5.123.744s.114.509.177.762.118.479.188.714.162.494.248.739c.081.228.159.457.249.681.1.242.208.477.317.713.1.216.2.433.3.643.12.233.252.457.383.683.117.2.231.408.357.6.141.222.294.434.445.648.134.189.263.381.4.564.161.209.334.407.5.607.149.175.293.353.449.522.18.194.371.377.56.563.162.159.319.323.488.475.2.18.407.346.614.516.173.143.342.291.522.426.215.163.441.311.664.463.184.126.364.258.553.376.232.145.474.273.713.406.193.108.381.223.578.322.25.126.508.235.764.348.2.088.392.184.593.264.268.106.545.192.819.284.2.067.4.144.6.2.292.085.592.149.889.218.194.045.383.1.579.139.334.064.675.1,1.014.148.167.021.33.055.5.071.51.049,1.027.075,1.548.075a17.833,17.833,0,0,0,11.854-4.456.751.751,0,0,0,.1-.973l-8.005-11.564c.124-.083.241-.175.363-.261.192-.135.382-.271.57-.41q.35-.261.688-.535c.181-.144.361-.289.538-.439.223-.189.441-.385.658-.582.169-.154.338-.307.5-.465.215-.207.422-.42.629-.634.156-.161.313-.32.465-.485.206-.225.4-.457.6-.69.14-.164.284-.326.42-.494.2-.249.391-.506.583-.763.121-.162.247-.32.364-.485.206-.291.4-.59.594-.89.09-.14.187-.275.275-.417.276-.446.54-.9.788-1.364a24.841,24.841,0,0,0-29.693-35.289c-.6.2-1.186.423-1.766.666-.189.078-.371.168-.558.252-.388.174-.775.353-1.154.547-.214.109-.424.226-.635.342-.343.189-.683.383-1.018.587-.213.131-.424.264-.633.4-.326.213-.645.434-.961.662-.2.143-.4.285-.591.434-.329.252-.647.516-.963.783-.165.14-.334.275-.495.419q-.618.553-1.2,1.147c-.053.054-.111.1-.163.158q-.611.633-1.175,1.309v-6.788a12.447,12.447,0,0,1,2.023-6.671C885.207,849.646,897.193,844.654,910.375,844.654Zm-28.563,59.907c-.153-.044-.306-.094-.459-.14-.273-.083-.546-.164-.82-.254-.18-.059-.36-.124-.54-.186-.246-.084-.492-.168-.738-.257-.194-.071-.387-.146-.58-.219-.231-.088-.463-.175-.694-.267-.2-.079-.4-.162-.6-.243-.222-.092-.445-.183-.665-.277-.2-.086-.4-.175-.6-.263s-.425-.187-.635-.283-.4-.185-.6-.278-.411-.192-.615-.29-.39-.188-.583-.283-.4-.2-.6-.3-.377-.19-.563-.286-.386-.2-.576-.3-.36-.189-.537-.284-.371-.2-.553-.3l-.5-.274-.542-.3c-.152-.086-.3-.171-.452-.256-.18-.1-.355-.2-.528-.3l-.394-.228c-.18-.1-.353-.208-.524-.309l-.327-.2-.523-.316-.241-.147-.54-.335-.137-.085-.094-.059.239-.208.02-.017.037-.033c.075-.063.148-.126.235-.205l.023-.02,0,0c.336-.308.666-.629.982-.953l0,0h0a20.9,20.9,0,0,0,4.208-6.048c.183-.417.348-.85.49-1.286a10.541,10.541,0,0,0,.56-3.266c0-2.937-.286-7.952-2.01-11.486a31.824,31.824,0,0,1,6.533,3.116c.507.318.937.6,1.313.858.9.625,1.777,1.291,2.592,1.982a30.936,30.936,0,0,1,3.681,3.658c.361.431.588.732.67.843a73.4,73.4,0,0,1,4.445,11.671,29.075,29.075,0,0,1,.74,3.628c.047.359.085.711.108,1.053.013.189.022.376.028.561v.027c.049,1.793-.286,3.071-1,3.8a2.991,2.991,0,0,1-2.264.8c-.222,0-.448-.005-.676-.017h0c-.123-.006-.248-.017-.372-.026s-.247-.015-.372-.026a22.394,22.394,0,0,1-3.194-.55C882.66,904.8,882.237,904.683,881.812,904.561Zm-15.929-23.328a28.58,28.58,0,0,1,1.27-5.921,5.574,5.574,0,0,0,.213-.96c.013-.1,0-.2.011-.3a5,5,0,0,0,.019-.6c-.008-.119-.035-.229-.051-.345a4.764,4.764,0,0,0-.076-.486c-.029-.118-.075-.227-.113-.341-.047-.142-.087-.287-.145-.421-.049-.114-.111-.217-.168-.326s-.122-.249-.2-.365-.14-.2-.211-.3-.149-.218-.231-.318-.16-.18-.242-.269-.167-.189-.255-.275-.169-.153-.254-.229-.14-.132-.211-.19c.091-.028.183-.058.273-.082.143-.039.286-.077.427-.107.161-.035.321-.063.481-.088.14-.022.28-.044.419-.059.16-.017.319-.026.477-.034.136-.006.273-.013.408-.013.159,0,.317.008.475.017.131.007.263.014.394.027.159.016.316.04.473.065.126.02.253.038.378.063.159.032.316.071.472.111.121.031.242.059.361.094.158.046.313.1.468.154.116.039.231.077.345.12.157.06.31.127.464.194.109.047.219.092.327.143.155.072.306.151.458.23.1.054.208.105.31.161.152.084.3.174.45.264.1.058.2.114.293.175.151.095.3.2.446.3.089.061.181.12.269.182.148.1.292.214.437.323.083.063.169.125.252.189.145.113.285.23.426.347.077.063.156.125.231.189.151.129.3.26.441.39.061.055.124.108.183.163q.282.259.549.522l.04.039c.194.19.382.382.563.572h0c.368.386.731.792,1.088,1.211l.016.019-.165-.1a32.97,32.97,0,0,0-8.7-3.837.749.749,0,0,0-.928.551l-.02.083a.752.752,0,0,0,.134.627c2.35,3.078,2.7,8.976,2.7,12.218,0,.208-.01.423-.032.643a9.517,9.517,0,0,1-.478,2.121h0c-.084.251-.189.493-.289.738h-1.285c-2.422,0-3.5-1.518-3.5-4.92C865.771,882.785,865.807,882.015,865.883,881.233ZM879.6,871.59c.212-.256.439-.5.662-.744.2-.219.387-.445.592-.656.237-.243.488-.47.735-.7.209-.2.41-.4.626-.591.262-.23.538-.442.81-.659.216-.174.426-.356.648-.522.289-.216.591-.411.89-.613.219-.149.432-.308.657-.449.324-.2.66-.385.994-.573.211-.119.417-.249.632-.362.381-.2.774-.374,1.165-.552.179-.081.351-.174.532-.25q.864-.367,1.759-.663a23.345,23.345,0,0,1,19.727,41.937q-.878.552-1.795,1.023a23.067,23.067,0,0,1-5.783,2.052c-.2.01-.974.042-2.088.026a35.024,35.024,0,0,1-8.166-1.021c-.377-.1-.75-.214-1.12-.335l-.172-.056c-.386-.13-.759-.27-1.126-.422h0c-.385-.16-.736-.338-1.083-.518.02,0,.037-.012.057-.015a4.6,4.6,0,0,0,.74-.2c.079-.027.153-.06.228-.091a4.131,4.131,0,0,0,.515-.258c.066-.04.135-.077.2-.121a3.807,3.807,0,0,0,.6-.492,4.138,4.138,0,0,0,.654-.887,7.817,7.817,0,0,0,.766-4h0c-.006-.213-.016-.429-.031-.65-.025-.355-.063-.729-.118-1.144a30.434,30.434,0,0,0-.777-3.818,73.749,73.749,0,0,0-4.578-12.008.747.747,0,0,0-.061-.1c0-.005-.029-.041-.07-.1l-.046-.061-.156-.2-.051-.067c.034-.028.067-.056.1-.083s.086-.065.131-.1c.087-.061.181-.121.277-.179.043-.026.083-.053.128-.079.143-.081.3-.16.461-.234.028-.012.059-.022.087-.034.141-.06.288-.117.444-.168.063-.021.13-.039.2-.059.132-.039.27-.075.413-.107.077-.017.155-.033.235-.048.153-.029.313-.052.478-.072.076-.009.151-.02.23-.027.248-.023.506-.037.781-.037,4.256,0,10.588,3.952,10.588,14.84a.749.749,0,0,0,.434.68.725.725,0,0,0,.28.062c.012,0,.024.008.036.008s.028-.007.042-.007a.841.841,0,0,0,.156-.028.525.525,0,0,0,.077-.022.711.711,0,0,0,.208-.12,14.308,14.308,0,0,0,4.519-10.494,14.855,14.855,0,0,0-3.951-9.972c-2.094-2.259-5.942-4.951-12.389-4.951-.472,0-.941.022-1.408.063-.156.014-.31.041-.465.06-.31.036-.621.071-.929.126-.184.033-.366.08-.549.119-.277.059-.554.116-.829.19-.194.052-.386.117-.58.177-.261.08-.523.159-.782.254-.2.071-.393.154-.589.233-.253.1-.505.2-.756.319-.2.091-.393.191-.589.29-.246.123-.493.249-.737.385-.2.109-.39.226-.584.344-.242.145-.483.294-.723.453-.192.127-.384.26-.575.4-.13.092-.262.174-.391.269-.071-.087-.147-.165-.218-.251q-.531-.647-1.081-1.249c-.075-.083-.146-.175-.221-.256v-.413c.169-.24.351-.469.528-.7S879.413,871.822,879.6,871.59Zm26.547,50.867c-.154-.015-.3-.044-.457-.064-.3-.038-.6-.075-.9-.131-.178-.034-.351-.083-.527-.123-.265-.061-.531-.119-.791-.194-.183-.053-.361-.12-.543-.18-.244-.081-.489-.159-.729-.253-.182-.071-.359-.154-.538-.232-.229-.1-.459-.2-.683-.311-.177-.088-.348-.186-.521-.281-.216-.119-.432-.237-.641-.366-.17-.1-.333-.217-.5-.328-.2-.136-.4-.272-.6-.417-.16-.12-.316-.246-.471-.372-.188-.152-.375-.3-.555-.466-.15-.134-.295-.272-.44-.412-.173-.167-.344-.337-.509-.513-.138-.146-.272-.3-.4-.449q-.237-.271-.461-.555-.187-.238-.365-.484c-.142-.2-.278-.394-.41-.6-.111-.17-.219-.341-.323-.515-.124-.209-.242-.421-.356-.636-.095-.178-.188-.358-.276-.541-.106-.221-.2-.445-.3-.672-.079-.187-.157-.374-.228-.565-.086-.232-.163-.47-.238-.708-.06-.193-.122-.386-.175-.582-.066-.245-.12-.5-.173-.746-.043-.2-.087-.393-.121-.593-.011-.062-.016-.127-.026-.189l.14.028.263.055q.476.1.946.18l.27.047c.375.062.746.118,1.112.166l.22.027q.451.057.889.1l.3.03c.338.032.67.06.989.082l.176.011c.266.017.523.031.773.043l.31.013q.339.014.652.021l.266.006.6.006h.123l.177,0,.314,0,.255,0c.141,0,.267-.006.378-.009l.213-.008.115-.005.134-.006.1-.005a.753.753,0,0,0,.107-.014c.693-.144,1.376-.321,2.05-.523.223-.067.439-.152.659-.225.448-.148.895-.3,1.334-.471.258-.1.509-.222.764-.333.392-.171.783-.342,1.167-.533.265-.133.523-.279.784-.421s.508-.26.755-.406l7.665,11.071a16.754,16.754,0,0,1-10.345,3.62C907.073,922.524,906.61,922.5,906.152,922.457Zm-21.4-41.792c-.1-.106-.206-.211-.316-.322-.214-.216-.445-.439-.687-.669-.1-.1-.2-.191-.306-.292-.342-.316-.7-.64-1.093-.973l-.189-.3-.049-.076c-.1-.164-.23-.353-.367-.555-.043-.064-.09-.132-.136-.2-.106-.154-.218-.314-.339-.485-.063-.088-.124-.174-.191-.266l-.107-.15c.108-.079.215-.161.323-.237.182-.129.365-.256.549-.377.214-.141.429-.275.645-.405.184-.112.368-.222.552-.325.22-.122.44-.236.661-.347.184-.093.368-.187.553-.272.226-.1.454-.2.681-.289.183-.074.365-.151.548-.218.235-.085.471-.158.708-.231.178-.056.357-.116.536-.165.249-.067.5-.119.751-.173.169-.036.337-.08.506-.11.281-.05.563-.083.846-.116.142-.017.282-.042.424-.055q.638-.057,1.282-.058c10.888,0,14.84,8.027,14.84,13.423a13.086,13.086,0,0,1-2.813,8.064c-.705-10.583-7.428-14.483-12.027-14.483-.337,0-.654.019-.959.047-.1.01-.188.024-.283.036-.2.025-.4.055-.591.092-.1.019-.194.04-.289.062-.178.041-.348.087-.513.138-.082.025-.165.048-.243.075-.193.066-.376.138-.55.214-.037.016-.077.03-.113.047-.207.095-.4.2-.581.3-.053.031-.1.063-.151.095-.125.078-.246.156-.359.237-.056.04-.109.08-.162.121s-.1.07-.14.1l-.077-.084c-.075-.084-.158-.172-.239-.26C885.116,881.051,884.94,880.864,884.748,880.665Zm-6.177-23.14c-.026.051-.042.1-.068.153-.222.448-.428.9-.6,1.354-.008.02-.013.04-.02.06a13.848,13.848,0,0,0-.42,1.342c-.022.085-.046.171-.067.257a13.2,13.2,0,0,0-.252,1.359c-.012.09-.02.181-.03.271a13.041,13.041,0,0,0-.087,1.426v8.185c-.056-.051-.112-.093-.168-.144q-.4-.355-.795-.68c-.087-.071-.174-.147-.261-.216q-.522-.413-1.043-.772c-.071-.049-.143-.092-.213-.139q-.423-.282-.845-.529c-.11-.064-.219-.125-.329-.185-.264-.146-.528-.281-.793-.407-.092-.044-.184-.091-.277-.133-.351-.157-.7-.3-1.053-.42-.052-.018-.1-.031-.155-.048-.3-.1-.6-.185-.9-.258-.1-.026-.21-.048-.315-.07q-.395-.084-.789-.136c-.095-.013-.19-.029-.284-.039a10.258,10.258,0,0,0-1.048-.061h-.014q-.406,0-.81.034c-.08.006-.16.02-.24.029-.2.021-.394.043-.591.077-.107.018-.213.043-.319.065-.17.034-.34.069-.509.112-.113.029-.226.065-.339.1s-.232.062-.347.1c-.148-.051-.307-.093-.461-.14s-.3-.093-.449-.135c-.038-.011-.072-.023-.11-.033A19.237,19.237,0,0,1,878.571,857.525Zm-35.115,55.143a.75.75,0,0,0-.366,1.021l.652,1.3a8.365,8.365,0,0,1-4.9-3.776c-1.458-2.721-.812-6.163.072-8.722h.011a12.722,12.722,0,0,1,1.637.038h.011c.183.016.369.039.556.065l.052.008c.177.026.355.058.534.094l.089.018c.169.037.338.078.507.125l.123.034c.16.047.32.1.478.155l.152.056c.15.057.3.118.445.185.06.027.119.057.178.086.138.067.275.136.409.213.067.038.133.081.2.122.125.077.249.156.37.242.073.052.143.111.215.167.11.086.222.171.328.267.08.071.156.152.233.229.093.092.188.18.277.28s.19.235.282.355c.062.08.128.152.187.237a6.85,6.85,0,0,1,.414.674c.044.081.08.172.122.256.083.169.167.338.241.521.043.109.079.229.119.343.053.147.1.295.15.452A7.44,7.44,0,0,1,843.456,912.668Zm4.923-6.261-.013-.028c-.022-.057-.05-.107-.073-.163-.111-.264-.229-.517-.356-.756-.053-.1-.109-.191-.165-.286-.108-.186-.22-.365-.337-.534-.064-.092-.128-.182-.194-.27-.125-.166-.255-.322-.389-.473-.061-.069-.12-.141-.183-.207a7.539,7.539,0,0,0-.611-.58l-.025-.019a7.794,7.794,0,0,0-.634-.474c-.071-.048-.143-.09-.214-.135-.159-.1-.319-.2-.482-.284-.079-.043-.158-.084-.238-.123-.167-.084-.334-.16-.5-.232-.069-.03-.138-.061-.209-.089-.226-.089-.453-.171-.68-.242l-.03-.01c-.246-.076-.491-.14-.735-.2l-.15-.031q-.287-.063-.569-.11c-.062-.011-.123-.02-.184-.029-.181-.027-.358-.05-.534-.069l-.156-.017c-.214-.02-.423-.036-.625-.045h-.016c-.2-.01-.392-.015-.576-.016.188-.442.39-.882.6-1.316.088-.07.175-.132.262-.2s.189-.142.282-.2c.112-.073.222-.134.333-.2.086-.049.172-.1.258-.145.117-.059.232-.107.348-.156.078-.034.157-.072.235-.1.12-.044.238-.078.356-.113.072-.021.146-.047.217-.065.121-.03.239-.05.358-.071.067-.011.135-.027.2-.036.118-.016.234-.023.35-.031.064,0,.129-.012.193-.014.114,0,.224,0,.335.006.062,0,.126,0,.187.005.108.007.212.021.316.035.061.007.123.012.183.022.1.016.195.037.292.058.059.013.121.023.179.037.091.022.177.049.264.075.059.017.121.032.178.051.078.025.151.053.225.081s.125.043.184.067.119.051.178.076.133.056.194.085.092.046.138.069c.065.032.133.065.193.1l.094.052a7.039,7.039,0,0,1,.632.4c.01.327.035.645.069.956.012.1.03.2.045.3.029.206.06.41.1.608.024.114.052.225.079.337.044.179.09.355.142.527q.052.168.111.333.087.249.188.487c.045.105.09.209.138.311.076.161.159.316.245.47.051.092.1.185.155.275.1.168.216.33.331.49.048.066.091.136.141.2a8.038,8.038,0,0,0,.54.631C849.1,905.831,848.7,906.148,848.379,906.407Zm4.979-.694a.658.658,0,0,1-.825.141,7.564,7.564,0,0,1-1.338-.888,7.137,7.137,0,0,1-2.432-5.786.75.75,0,0,0-.264-.571l-.08-.064c-.019-.014-.033-.024-.058-.044-.048-.036-.108-.078-.182-.13-.035-.025-.063-.045-.1-.072-.109-.074-.232-.153-.378-.241l-.033-.021c-.152-.09-.327-.185-.514-.281-.058-.03-.119-.058-.18-.087-.148-.072-.3-.141-.469-.21-.072-.03-.142-.059-.218-.088-.225-.086-.459-.167-.71-.238-.016-.005-.03-.011-.046-.015a7.34,7.34,0,0,0-.826-.175c-.084-.014-.17-.022-.256-.033q-.327-.04-.671-.049c-.061,0-.117-.014-.179-.014-.04,0-.083.008-.123.009-.173,0-.349.018-.527.036-.113.011-.224.018-.338.035-.2.031-.406.08-.612.132-.095.024-.189.039-.285.068a6.723,6.723,0,0,0-.924.349c-.015.007-.03.018-.045.025a7.455,7.455,0,0,0-.888.5c-.019.012-.038.019-.056.031a7.582,7.582,0,0,1,1.659-8.242.735.735,0,0,0,.144-.2l.05-.094a4.237,4.237,0,0,1,3.528-2.319c2.112,0,4.919.8,4.919,7.754A17.875,17.875,0,0,0,852.858,904c.187.316.375.619.561.9h0A.638.638,0,0,1,853.358,905.713Zm2.881-4.4a18.055,18.055,0,0,0-2.46,1.25c-.038-.069-.079-.139-.116-.208-.083-.155-.162-.31-.24-.465q-.142-.284-.275-.564c-.071-.154-.141-.307-.207-.46q-.123-.283-.235-.564c-.06-.151-.119-.3-.173-.451-.07-.19-.134-.379-.2-.568-.048-.147-.1-.293-.139-.439-.058-.192-.107-.384-.156-.575-.036-.141-.074-.282-.106-.422-.044-.2-.08-.4-.116-.595-.024-.13-.051-.261-.071-.391-.033-.219-.055-.436-.077-.653-.011-.107-.027-.215-.036-.322-.024-.323-.039-.644-.039-.963,0-.124,0-.246,0-.367,0,.025.013.048.018.073a7.027,7.027,0,0,0,.227.963c.016.053.034.105.052.157a7.249,7.249,0,0,0,.367.9c.018.037.038.072.057.108a7.29,7.29,0,0,0,.5.842l0,.005a6.819,6.819,0,0,0,.6.728c.025.027.048.055.073.081a6.069,6.069,0,0,0,.634.568l.111.086a5.178,5.178,0,0,0,.664.42l.117.058a3.947,3.947,0,0,0,.691.267c.029.008.057.012.087.019a3.009,3.009,0,0,0,.72.1,4.794,4.794,0,0,0,5-5c0-3.644-4.278-6.419-6.42-6.419a4.523,4.523,0,0,0-.6.04c-.063.008-.119.024-.179.035a3.545,3.545,0,0,0-.35.077c-.065.019-.125.042-.187.064-.095.035-.189.07-.277.111-.059.028-.115.059-.171.09-.08.045-.158.092-.231.142-.051.036-.1.073-.15.111-.068.055-.133.112-.2.171-.043.041-.086.082-.125.125-.061.065-.116.133-.17.2-.034.043-.069.085-.1.13-.055.078-.1.159-.151.241-.023.04-.049.078-.071.119-.062.115-.117.233-.167.352l-.013.029c-.053.13-.1.262-.14.4-.014.045-.025.09-.037.135-.025.089-.05.178-.071.267-.012.054-.022.108-.033.162-.016.079-.032.158-.045.237-.01.056-.018.111-.026.166-.011.076-.021.15-.029.224-.006.055-.012.108-.017.161-.007.071-.013.14-.018.208s-.008.1-.011.154c0,.067-.006.129-.009.192,0,.046,0,.093-.005.137v.032c0-.046-.011-.089-.015-.135-.012-.125-.027-.246-.041-.368-.022-.191-.046-.381-.074-.565-.018-.124-.039-.244-.06-.364q-.047-.261-.1-.51c-.025-.115-.051-.229-.079-.341-.04-.162-.084-.319-.13-.474-.03-.1-.061-.208-.093-.308-.052-.155-.107-.3-.165-.449-.034-.089-.067-.181-.1-.267-.067-.157-.14-.3-.215-.451-.033-.066-.063-.136-.1-.2a6.7,6.7,0,0,0-.358-.585c-.012-.017-.025-.031-.037-.047a5.544,5.544,0,0,0-.368-.469c-.048-.055-.1-.1-.15-.155-.1-.1-.2-.205-.3-.3-.061-.055-.126-.1-.19-.156-.1-.08-.2-.159-.306-.232-.071-.048-.144-.093-.217-.138-.106-.066-.214-.128-.325-.185-.078-.04-.157-.079-.238-.115-.115-.052-.232-.1-.352-.144-.084-.031-.167-.061-.253-.089-.127-.04-.259-.073-.392-.1-.085-.021-.168-.043-.256-.06-.149-.03-.3-.05-.46-.07-.077-.009-.152-.023-.231-.03-.238-.022-.482-.035-.734-.035a5.1,5.1,0,0,0-.989.1l-.054.009a4.835,4.835,0,0,0-.834.258c-.026.01-.053.019-.079.03a5.124,5.124,0,0,0-.7.365l-.085.052a5.567,5.567,0,0,0-.58.431l-.078.065c-.026.023-.055.045-.08.067-.013-.679-.024-1.361-.024-2.043,0-4.341,3.853-16.258,16.258-16.258a21.964,21.964,0,0,1,4.4.406c.182.037.352.084.528.127a.744.744,0,0,0-.011.117l0,.018a.746.746,0,0,0,.38.644.471.471,0,0,0,.046.031c.14.068,3.418,1.692,2.444,4.767a30.123,30.123,0,0,0-1.334,6.231c-.079.83-.118,1.647-.118,2.5,0,4.26,1.683,6.42,5,6.42h.632c-.038.07-.068.141-.107.211-.084.151-.176.3-.266.453-.174.292-.358.585-.554.876q-.158.232-.322.465c-.216.3-.446.6-.684.9-.107.134-.209.268-.321.4-.356.423-.729.843-1.128,1.252-.206.212-.424.417-.64.622-.1.092-.186.186-.285.276h0c-.069.064-.141.124-.212.184l-.047.041-.16.14-.006,0-.173.152c-.12.106-.239.212-.361.311a.758.758,0,0,0-.146.159.773.773,0,0,0-.16.1A36,36,0,0,1,856.239,901.318Zm-3.224-7.808c0-3.5,1.3-3.5,2.084-3.5,1.387,0,4.92,2.181,4.92,4.919a3.336,3.336,0,0,1-3.5,3.5C855.139,898.43,853.015,896.318,853.015,893.51Zm13.877,5.814.236.14c.2.119.4.239.616.363l.316.183.606.348.362.2q.315.177.643.357c.123.068.244.135.37.2.24.131.486.262.734.4l.331.176q.52.273,1.062.548l.048.025q.571.288,1.162.575l.314.149q.43.206.869.408c.141.065.284.129.426.193q.4.18.8.355l.455.2q.405.172.813.337c.148.061.3.121.444.18.3.117.594.23.892.342.124.046.248.094.372.139.423.154.847.3,1.271.442l.058.018q.6.2,1.2.37c.134.039.267.074.4.111.209.058.417.119.625.172.167.523.366,1.029.556,1.541.107.287.2.582.312.865.344.855.715,1.692,1.12,2.5.345.69.716,1.347,1.1,1.988.1.159.19.315.287.471.392.629.8,1.241,1.225,1.817v0h-.634a20.533,20.533,0,0,1-20.124-16.559C866.389,899.021,866.636,899.17,866.892,899.324Zm21.336,20.585a.75.75,0,0,0-.946-.093l-3.794,2.528a69.253,69.253,0,0,1-9.215-8.955l.051.031c.384.25.777.484,1.175.709.132.074.267.143.4.215q.442.237.893.454.227.108.455.211.461.207.932.392c.138.054.274.111.413.163.45.167.9.323,1.366.46l.034.01c.451.133.907.248,1.368.352.148.034.3.062.446.092.332.068.665.13,1,.182.169.027.338.051.508.074.338.045.678.081,1.02.111.154.013.307.029.461.039.492.033.987.054,1.485.054h1.843c.161.184.331.353.5.531s.312.343.473.505c.22.222.448.43.674.641.156.145.308.3.467.435.258.226.525.436.791.647.136.107.268.223.4.327q.612.461,1.249.87c.016.1.037.229.061.37,0,.025.008.05.013.077.023.141.05.3.081.476l.008.045c.067.393.152.867.254,1.411l.025.135c.046.247.1.505.148.778l.019.1c.054.274.11.556.169.853Zm-13.1,77.162a26.3,26.3,0,0,1,1.27-3.9c.033.044.069.087.1.131.057.082.111.165.161.248s.1.181.151.271.084.165.12.246.076.176.109.262.059.154.084.227.052.162.074.239.038.132.053.191c.006.026.011.046.016.07A5.992,5.992,0,0,0,875.127,997.071Zm5.207,4.245a16.075,16.075,0,0,1-.275-2.174h.885A8.591,8.591,0,0,0,880.334,1001.316Zm4.121-8.522c.18,1.9-.1,3.335-.8,4.144a1.98,1.98,0,0,1-1.284.7h-2.321a12.84,12.84,0,0,1,.181-1.738c.069-.027.129-.064.2-.093.094-.042.186-.086.277-.133a4.6,4.6,0,0,0,.4-.236c.079-.052.159-.1.234-.158a4.1,4.1,0,0,0,.372-.32c.057-.053.119-.1.172-.158a4.172,4.172,0,0,0,.45-.559,5.238,5.238,0,0,0,.793-2.941,3.9,3.9,0,0,1,.076-.738c.011-.058.023-.117.037-.174a3.724,3.724,0,0,1,.209-.651v0a4.1,4.1,0,0,1,.323-.582c.03-.046.062-.092.093-.137a4.9,4.9,0,0,1,.409-.507l0,0a5.643,5.643,0,0,1,.482-.446c.04-.034.081-.068.123-.1s.079-.058.119-.087A13.908,13.908,0,0,0,884.455,992.794Zm32.57-33.279-23.756,17.008a.749.749,0,0,0,.1,1.277,9.621,9.621,0,0,1,4.654,5.322,9.277,9.277,0,0,0-5.561-2.479c-.056-.005-.111-.009-.169-.009a.751.751,0,0,0-.75.737c0,.033,0,.064,0,.1a12.487,12.487,0,0,1-3.776,3.465,11.413,11.413,0,0,0-1.764.628c-2.823,1.267-4.377,3.308-4.377,5.746a3.774,3.774,0,0,1-.544,2.113,2.736,2.736,0,0,1-.318.393,3.2,3.2,0,0,1-1.385.8h0a4.493,4.493,0,0,1-.628.142l-.009-.034c-.018-.079-.039-.161-.063-.249-.009-.034-.02-.069-.03-.1-.021-.072-.043-.145-.067-.221-.014-.043-.029-.086-.044-.13-.026-.075-.054-.152-.084-.23l-.053-.137c-.037-.09-.078-.182-.121-.274-.017-.035-.03-.07-.048-.1-.06-.126-.127-.253-.2-.38-.02-.036-.044-.072-.065-.108-.056-.093-.114-.186-.177-.28-.032-.047-.066-.093-.1-.14-.059-.083-.121-.165-.187-.246-.038-.049-.078-.1-.119-.144-.07-.081-.144-.16-.221-.239-.029-.031-.055-.063-.085-.093,2.754-5.782,9.721-15.2,11.19-16.845.3-.333.508-.561.625-.684l.046-.049,19.042-13.326a.75.75,0,0,0,.319-.614v-2.161l.12-.018.16-.024c.144-.023.3-.049.468-.081l.059-.01c.186-.036.389-.08.6-.128l.2-.048c.17-.04.345-.086.527-.135l.2-.056c.245-.07.5-.147.759-.235.05-.017.1-.037.152-.054.218-.075.44-.158.666-.247.084-.032.167-.066.252-.1q.35-.144.708-.311l.157-.072c.285-.137.572-.288.859-.449.077-.043.152-.089.228-.134.225-.13.448-.269.671-.416.084-.055.166-.108.249-.166.289-.2.577-.408.859-.636.023-.019.045-.04.067-.058.259-.212.513-.44.763-.679.079-.076.156-.154.234-.233q.316-.318.618-.668c.061-.071.124-.138.184-.21.024-.03.051-.056.075-.086v3.164a.75.75,0,0,0,.025.194A3.723,3.723,0,0,1,917.025,959.515Zm2.6-19.626v-13.03h9.839v3.191Zm-17.091,66.672v1.072c-.032.006-.062.021-.094.027a4.969,4.969,0,0,0-.783.224l-.015.007a6.184,6.184,0,0,0-.743.357c-.044.025-.088.047-.131.073a7.72,7.72,0,0,0-.673.442l-.125.094c-.217.165-.428.335-.626.512l-.005,0a6.828,6.828,0,0,1,.384-.638A5.435,5.435,0,0,1,902.538,1006.561Zm6.069,11.546c.053.041.093.086.141.129a2.85,2.85,0,0,1,.259.256c.045.054.083.107.122.161.058.08.115.16.161.238.032.055.061.107.087.159.037.074.072.146.1.213.01.023.019.046.028.069a3.5,3.5,0,0,0-.393.365c-.042.044-.077.094-.117.14-.076.091-.151.182-.218.278-.04.059-.076.12-.114.18-.056.092-.112.184-.161.28-.034.065-.066.132-.1.2-.045.1-.087.2-.125.3-.026.067-.052.135-.075.2-.036.107-.068.216-.1.325-.017.065-.036.13-.052.2-.029.124-.053.248-.076.373-.01.053-.022.106-.03.159-.029.179-.052.359-.068.538a5.494,5.494,0,0,1-.273-1.041c-.012-.074-.018-.15-.028-.225a6.393,6.393,0,0,1-.053-.979c0-.053,0-.105,0-.158a9.713,9.713,0,0,1,.536-2.675l0-.008.006,0A2.779,2.779,0,0,1,908.607,1018.107Zm15.233,4.334-.648-2.446a2.857,2.857,0,0,1,.1-.324l.006-.016a2.294,2.294,0,0,1,.141-.314l.005-.009a1.008,1.008,0,0,1,.182-.245l0,0a.323.323,0,0,1,.214-.1c.3,0,.551.6.647,1.01Zm11.436-51.414a.756.756,0,0,0-.118.256c-.041.167-4.158,16.808-5.675,24.122a12.307,12.307,0,0,0,2.383,9.734,19.064,19.064,0,0,0,2.054,2.425h-7.954a.75.75,0,0,0-.75.75v9.819c-.019-.022-.043-.04-.063-.061-.037-.039-.077-.075-.117-.111a2.01,2.01,0,0,0-.206-.162c-.045-.03-.089-.06-.136-.087a1.765,1.765,0,0,0-.262-.115c-.045-.016-.088-.037-.135-.05a1.809,1.809,0,0,0-.457-.062,1.767,1.767,0,0,0-.458.063c-.046.012-.088.032-.132.048a1.676,1.676,0,0,0-.266.117c-.046.026-.089.055-.132.084a1.984,1.984,0,0,0-.21.165c-.039.035-.078.071-.114.109-.021.021-.045.039-.064.061v-9.818a.75.75,0,0,0-.75-.75H920.3a.754.754,0,0,0-.24.039c-3.876,1.312-7.376,8.583-7.523,8.892a.751.751,0,0,0-.073.323,2.214,2.214,0,0,1-.586,1.742,1.319,1.319,0,0,1-.221.152c-.031.017-.062.028-.093.042-.047.022-.094.046-.142.063s-.071.02-.106.03-.086.025-.127.034-.072.012-.108.017-.076.012-.111.016h-.015l-.012-.031c-.023-.063-.05-.129-.078-.2-.011-.027-.02-.051-.032-.079-.042-.1-.089-.2-.144-.3l-.016-.029c-.05-.093-.1-.189-.167-.285-.02-.033-.044-.066-.066-.1-.05-.075-.1-.15-.161-.226-.029-.038-.059-.075-.09-.113-.06-.072-.124-.143-.191-.214-.034-.037-.067-.073-.1-.109-.08-.078-.166-.154-.256-.229-.03-.025-.057-.051-.089-.075a3.911,3.911,0,0,0-.4-.278c-.028-.017-.06-.031-.089-.048-.118-.068-.242-.132-.374-.192-.02-.008-.035-.019-.055-.028a23.2,23.2,0,0,1,1.761-3.133l.058-.086q.29-.435.589-.854c.042-.059.084-.118.127-.176q.266-.367.535-.72c.057-.076.115-.152.172-.226.166-.215.331-.422.5-.626.065-.081.13-.164.194-.242.162-.2.321-.388.48-.575.06-.071.122-.146.182-.216.213-.248.422-.487.622-.711,1.5-1.68,2.7-2.769,2.708-2.78a.75.75,0,0,0-.783-1.251l-7.087,2.834c-.009,0-.014.014-.023.018a.73.73,0,0,0-.243.18.655.655,0,0,0-.058.07.739.739,0,0,0-.137.306c0,.01-.01.053-.021.106a2.762,2.762,0,0,1-1.475,2c-.006,0-.01.006-.016.008a1.837,1.837,0,0,1-1.142.006,1.675,1.675,0,0,1-.16-.076,1.9,1.9,0,0,1-.294-.152,1.94,1.94,0,0,1-.152-.132,2,2,0,0,1-.206-.194c-.047-.053-.085-.109-.126-.164-.052-.071-.1-.142-.149-.215s-.065-.116-.094-.175-.075-.144-.1-.214-.046-.111-.066-.165-.049-.13-.068-.189-.03-.095-.042-.137-.027-.1-.037-.138-.017-.069-.021-.092l-.006-.025v-1.984c.22-.019.442-.029.668-.029,6.8,0,15.681-6.952,16.055-7.248a.737.737,0,0,0,.13-.132c4.962-6.455,9.85-26.364,10.055-27.209a.751.751,0,0,0,.022-.177v-8.7a15.348,15.348,0,0,0,6.159,1.414,10.846,10.846,0,0,0,3.436-.549Zm44.548-30.078a10.542,10.542,0,0,1-7.9-3.941.75.75,0,0,0-.607-.311.74.74,0,0,0-.232.037.749.749,0,0,0-.518.713v3.473a10.653,10.653,0,0,1-7.146-3.912.958.958,0,0,0-.078-.091l-1.975-1.974.023.005a10.453,10.453,0,0,0,1.258.277c.1.017.205.031.308.044a9.716,9.716,0,0,0,1.273.094c.254,0,.516-.006.783-.016.085,0,.174-.009.26-.014.186-.009.371-.017.562-.031.1-.007.212-.017.318-.026.178-.014.354-.028.535-.045.116-.011.234-.025.351-.037.175-.019.349-.037.526-.058l.369-.047c.176-.023.352-.045.53-.07l.374-.054.531-.079.386-.063c.177-.029.353-.057.53-.088q.188-.031.375-.066.27-.047.539-.1c.124-.022.247-.046.371-.069l.53-.1.369-.074c.174-.035.345-.069.516-.1l.366-.077.5-.107.352-.077.479-.108c.119-.026.236-.053.352-.08l.43-.1.376-.088.352-.085.4-.1.281-.07.433-.108.055-.014,4.75,4.75.115.125.02.021c.061.065.135.142.23.238l.02.019c.082.081.177.174.282.274l.11.1c.09.083.186.17.29.261.045.04.088.079.136.12.134.116.276.235.429.358l.065.053c.173.139.36.281.556.424.056.041.117.083.175.124.149.106.3.211.463.317.073.048.145.1.22.142.175.111.357.22.543.328.048.027.09.056.138.082Zm11.338,0a7.639,7.639,0,0,1-1.291-.12,13.059,13.059,0,0,1-6.619-3.844l-.03-.032c-.01-.012-.022-.025-.033-.036L976.77,930.5l-6.337-6.338-2.824-2.823-8.3-8.9c.721-.214,1.436-.453,2.147-.7.148-.052.295-.107.443-.16q.8-.291,1.589-.612c.17-.068.34-.136.509-.207.647-.271,1.288-.553,1.92-.854l.028-.013c.859-.41,1.684-.844,2.49-1.293.12-.067.236-.139.355-.207q1.088-.619,2.106-1.284c.035-.022.072-.042.107-.065l24.371,33.907Zm19.843,7.087c-10.031,0-13.365-6.4-13.5-6.67a.732.732,0,0,0-.063-.1l-25.2-35.06a35.079,35.079,0,0,0,4.158-3.479l.176-.173q.864-.856,1.645-1.754c.044-.051.091-.1.135-.151.557-.653,1.088-1.319,1.576-2l0,0,21.957,30.741h0l13.326,18.656Z" fill="#1a1a1a"></path> </g> </g> </g></svg>